<?xml version="1.0" encoding="utf-8"?><svg viewBox="0 0 100 100" xmlns="http://www.w3.org/2000/svg" xmlns:xlink="http://www.w3.org/1999/xlink"><style>:root>svg{display:none}:root>svg:target{display:block}</style><svg viewBox="0 0 100 100" id="telegram" xmlns="http://www.w3.org/2000/svg"><path d="M77 12a1 1 0 100 2 1 1 0 100-2zM50 13a37 37 0 100 74 37 37 0 100-74zM83 11a4 4 0 100 8 4 4 0 100-8zM87 22a2 2 0 100 4 2 2 0 100-4z"/><path d="M81 74a2 2 0 100 4 2 2 0 100-4zM15 59a4 4 0 100 8 4 4 0 100-8zM25 85a2 2 0 100 4 2 2 0 100-4zM18.5 49a2.5 2.5 0 100 5 2.5 2.5 0 100-5zm61-17a1.5 1.5 0 100 3 1.5 1.5 0 100-3zM50 25.625a24.25 24.25 0 100 48.5 24.25 24.25 0 100-48.5z"/><path d="M50 74.825c-13.757 0-24.95-11.192-24.95-24.95S36.243 24.925 50 24.925s24.95 11.192 24.95 24.95S63.757 74.825 50 74.825zm0-48.5c-12.985 0-23.55 10.564-23.55 23.55S37.015 73.425 50 73.425s23.55-10.564 23.55-23.55S62.985 26.325 50 26.325z"/><path d="M69.424 44.625a.501.501 0 01-.478-.354 19.366 19.366 0 00-1.754-4.022.5.5 0 11.865-.5 20.449 20.449 0 011.844 4.228.5.5 0 01-.477.648z"/><path d="M50 70.75c-11.511 0-20.875-9.337-20.875-20.813S38.489 29.125 50 29.125a20.921 20.921 0 0116.501 8.064.5.5 0 01-.789.613A19.92 19.92 0 0050 30.124c-10.959 0-19.875 8.888-19.875 19.813S39.041 69.75 50 69.75s19.875-8.888 19.875-19.813c0-.995-.075-1.996-.222-2.973a.5.5 0 01.989-.148c.154 1.025.233 2.076.233 3.121 0 11.476-9.364 20.813-20.875 20.813z"/><path d="M48.656 58.485l-4.355 4.021s-.34.261-.713.097l.834-7.47 4.234 3.352z"/><path d="M43.843 62.907a.875.875 0 01-.354-.075l-.168-.073.904-8.101 4.816 3.813-4.57 4.219a1.102 1.102 0 01-.628.217zm.778-7.298l-.758 6.798c.157-.006.281-.096.288-.101l4.122-3.807-3.652-2.89z"/><path d="M62.72 38.514l-4.771 24.365s-.667 1.69-2.503.879l-11.011-8.55-4.004-1.96-6.74-2.297s-1.035-.371-1.135-1.182c-.1-.811 1.167-1.25 1.167-1.25l26.795-10.645c0-.003 2.202-.983 2.202.64z"/><path d="M56.384 64.229c-.327 0-.674-.081-1.039-.242l-11.063-8.582-3.96-1.933-6.71-2.285c-.052-.019-1.185-.435-1.303-1.389-.124-1 1.274-1.496 1.334-1.517L60.426 37.64l.003.007c.332-.185 1.207-.418 1.763-.268.291.077.778.328.778 1.135l-.005.048-4.771 24.365c-.025.077-.338.848-1.115 1.167a1.82 1.82 0 01-.695.135zm4.356-26.178v.002l-.129.052L33.816 48.75c-.021.008-1.084.396-1.012.987.079.641.963.975.972.978l6.736 2.296 4.033 1.972L55.6 63.561c.456.192.906.227 1.29.07.583-.239.825-.838.827-.844L62.47 38.49c-.004-.274-.082-.456-.236-.556-.376-.241-1.151-.013-1.494.117z"/><path d="M43.588 62.604s-.321-.03-.722-1.315c-.4-1.284-2.436-8.043-2.436-8.043l16.184-10.409s.934-.575.901 0c0 0 .166.101-.334.575S44.467 55.003 44.467 55.003l-.879 7.601z"/><path d="M43.808 62.875l-.243-.022c-.182-.017-.546-.232-.938-1.489-.4-1.284-2.437-8.045-2.437-8.045l-.055-.181.159-.102 16.184-10.408c.219-.136.754-.422 1.077-.229a.435.435 0 01.208.344l.027.121c.021.199-.113.425-.436.73-.482.457-11.561 10.542-12.648 11.532l-.898 7.749zm-3.085-9.521c.326 1.082 2.02 6.701 2.381 7.86.112.359.215.609.302.781l.823-7.114.069-.063c.122-.111 12.218-11.121 12.71-11.589.141-.134.212-.224.249-.277l.007-.12c-.112.014-.339.106-.521.218l-16.02 10.304z"/><path d="M56.384 64.479c-.36 0-.742-.088-1.14-.264l-.089-.051-6.709-4.802-3.806 3.511c-.089.073-.595.442-1.197.211-.592-.161-.936-1.265-1.055-1.646-.335-1.075-1.819-5.996-2.292-7.564l-.071-.235-6.494-2.214c-.062-.022-1.334-.49-1.47-1.595-.118-.958.887-1.572 1.5-1.784l26.774-10.637.003.008c.424-.209 1.407-.484 2.069-.23.304.118.814.446.814 1.328L58.44 62.976c-.062.18-.406.997-1.266 1.351a2.096 2.096 0 01-.79.152zm-.69-1.159c.423.178.793.203 1.1.079.47-.192.688-.699.69-.704l4.746-24.277c-.009-.097-.05-.221-.131-.272-.22-.143-.78-.039-1.184.106l-.001.002-27.006 10.728c-.329.116-.891.438-.856.724.052.42.65.717.808.773l6.947 2.368.085.214c0 .001.061.193.16.522.473 1.567 1.955 6.481 2.29 7.557.221.71.398.948.451 1.007.096.038.21-.042.211-.044l4.362-4.028 7.328 5.245z"/></svg></svg>